<?xml version="1.0" encoding="iso-8859-1"?>
<!-- Generator: Adobe Illustrator 17.1.0, SVG Export Plug-In . SVG Version: 6.00 Build 0)  -->
<!DOCTYPE svg PUBLIC "-//W3C//DTD SVG 1.1//EN" "http://www.w3.org/Graphics/SVG/1.1/DTD/svg11.dtd">
<svg version="1.1" id="Capa_1" xmlns="http://www.w3.org/2000/svg" xmlns:xlink="http://www.w3.org/1999/xlink" x="0px" y="0px"
	 viewBox="0 0 295.27 295.27" style="enable-background:new 0 0 295.27 295.27;" xml:space="preserve">
<g>
	<path d="M254.261,183.947h-6.959V29.322l-12.03,2.527c-1.164,0.242-11.884,2.648-22.27,12.277
		c-9.348,8.667-20.7,25.143-20.7,54.421v85.399h-34.619c3.713-4,7.796-9.549,7.796-18.744c0-11.283-6.147-17.255-10.216-21.242
		c-3.436-3.367-4.173-4.306-4.173-6.882c0-2.575,0.737-3.526,4.172-6.893c4.068-3.987,10.217-10.006,10.217-21.289
		c0-11.282-6.148-17.304-10.217-21.292c-3.435-3.365-4.172-4.329-4.172-6.904c0-2.576,0.737-3.54,4.173-6.906
		c4.068-3.987,10.216-10.012,10.216-21.295c0-5.563-4.51-10.071-10.072-10.071c-5.562,0-10.072,4.51-10.072,10.072
		c0,2.575-0.737,3.54-4.172,6.906c-4.068,3.987-10.217,10.013-10.217,21.296c0,11.282,6.149,17.308,10.217,21.295
		c3.435,3.366,4.172,4.331,4.172,6.906c0,2.576-0.737,3.541-4.173,6.907c-4.068,3.987-10.216,10.013-10.216,21.295
		c0,11.282,6.148,17.309,10.216,21.296c3.436,3.367,4.173,4.333,4.173,6.91c0,2.577-0.737,3.434-4.173,6.801
		c-2.76,2.705-6.473,6.834-8.578,11.834h-29.281v-32H88.416l-0.093-24.775l14.979-0.012v-10.006
		c0-46.719-41.379-50.905-41.799-50.942l-10.846-1.067l-0.267,118.803H41.01c-22.65,0-41.01,18.352-41.01,41.001
		c0,22.648,18.359,40.999,41.01,40.999h213.251c22.649,0,41.009-18.351,41.009-40.999
		C295.27,202.299,276.91,183.947,254.261,183.947z M212.302,98.548c0-17.183,4.787-30.289,13.622-38.955
		c0.356-0.351,0.378-0.686,1.378-1.008v125.362h-15V98.548z M40.294,235.251c-5.563,0-10.077-4.511-10.077-10.075
		c0-5.564,4.514-10.077,10.077-10.077s10.077,4.514,10.077,10.077C50.371,230.74,45.857,235.251,40.294,235.251z"/>
</g>
<g>
</g>
<g>
</g>
<g>
</g>
<g>
</g>
<g>
</g>
<g>
</g>
<g>
</g>
<g>
</g>
<g>
</g>
<g>
</g>
<g>
</g>
<g>
</g>
<g>
</g>
<g>
</g>
<g>
</g>
</svg>
